<svg width="169" height="290" viewBox="0 0 169 290" fill="none" xmlns="http://www.w3.org/2000/svg">
<path fill-rule="evenodd" clip-rule="evenodd" d="M0 0H169V201H0V0Z" fill="#4AF6CD"/>
<path d="M60.3506 155.36C60.3506 152.2 60.8106 149.42 61.7306 147.02C62.6506 144.58 64.0306 142.4 65.8706 140.48L71.7506 145.46C69.4706 148.34 68.3306 151.36 68.3306 154.52C68.3306 156.16 68.6506 157.42 69.2906 158.3C69.8906 159.14 70.7506 159.56 71.8706 159.56C72.6706 159.56 73.3306 159.34 73.8506 158.9C74.3706 158.46 74.8706 157.72 75.3506 156.68C75.8306 155.64 76.4306 154 77.1506 151.76C78.5106 147.48 80.2306 144.36 82.3106 142.4C84.3506 140.4 87.1906 139.4 90.8306 139.4C93.4706 139.4 95.8106 140.08 97.8506 141.44C99.8506 142.8 101.411 144.78 102.531 147.38C103.651 149.94 104.211 152.96 104.211 156.44C104.211 163.08 102.191 168.5 98.1506 172.7L92.0906 167.24C94.8106 163.92 96.1706 160.46 96.1706 156.86C96.1706 154.98 95.7706 153.52 94.9706 152.48C94.1306 151.44 93.0306 150.92 91.6706 150.92C90.7106 150.92 89.9306 151.12 89.3306 151.52C88.6906 151.92 88.1306 152.64 87.6506 153.68C87.1306 154.68 86.5706 156.16 85.9706 158.12C84.4906 162.84 82.7106 166.16 80.6306 168.08C78.5506 170 75.9306 170.96 72.7706 170.96C70.2906 170.96 68.1106 170.3 66.2306 168.98C64.3506 167.62 62.9106 165.76 61.9106 163.4C60.8706 161 60.3506 158.32 60.3506 155.36ZM89.1506 101.955C92.0306 101.955 94.6106 102.595 96.8906 103.875C99.1706 105.115 100.971 106.995 102.291 109.515C103.571 112.035 104.211 115.115 104.211 118.755C104.211 124.275 102.871 128.455 100.191 131.295C97.4706 134.135 93.7906 135.555 89.1506 135.555H61.4306V124.455H88.7906C91.3106 124.455 93.1706 124.015 94.3706 123.135C95.5306 122.215 96.1106 120.755 96.1106 118.755C96.1106 116.755 95.5106 115.315 94.3106 114.435C93.1106 113.555 91.2706 113.115 88.7906 113.115H61.4306V101.955H89.1506ZM87.7706 81.9477V85.0077H103.131V96.1077H61.4306V81.6477C61.4306 75.7677 62.4906 71.3877 64.6106 68.5077C66.7306 65.5877 69.9906 64.1277 74.3906 64.1277C77.0306 64.1277 79.2306 64.7477 80.9906 65.9877C82.7506 67.1877 84.3306 69.1277 85.7306 71.8077L103.131 61.4277V73.7877L87.7706 81.9477ZM80.2106 85.0077V81.2877C80.2106 77.4477 78.2706 75.5277 74.3906 75.5277C72.5906 75.5277 71.2706 76.0677 70.4306 77.1477C69.5906 78.1877 69.1706 79.7677 69.1706 81.8877V85.0077H80.2106ZM103.131 58.9006H61.4306V33.2806L69.2906 34.4206V47.8006H79.3106V36.0406H87.1706V47.8006H103.131V58.9006Z" fill="white"/>
<path d="M60.3506 267.92C60.3506 262.36 62.1106 257.58 65.6306 253.58L71.3306 259.04C70.2506 260.56 69.4706 261.94 68.9906 263.18C68.4706 264.38 68.2106 265.76 68.2106 267.32C68.2106 270.32 69.3706 272.68 71.6906 274.4C74.0106 276.08 77.5506 276.92 82.3106 276.92C85.7906 276.92 88.5506 276.64 90.5906 276.08C92.5906 275.52 94.0306 274.68 94.9106 273.56C95.7906 272.4 96.2306 270.92 96.2306 269.12C96.2306 267.32 95.8506 265.68 95.0906 264.2H86.5106V268.94L78.8906 270.02V253.46H99.6506C101.091 255.62 102.211 258.06 103.011 260.78C103.811 263.5 104.211 266.18 104.211 268.82C104.211 281.86 96.8906 288.38 82.2506 288.38C77.6906 288.38 73.7706 287.5 70.4906 285.74C67.1706 283.94 64.6506 281.5 62.9306 278.42C61.2106 275.34 60.3506 271.84 60.3506 267.92ZM60.3506 230.335C60.3506 224.295 62.2706 219.595 66.1106 216.235C69.9506 212.875 75.3306 211.195 82.2506 211.195C86.7706 211.195 90.6906 211.955 94.0106 213.475C97.2906 214.955 99.8106 217.135 101.571 220.015C103.331 222.895 104.211 226.335 104.211 230.335C104.211 236.375 102.291 241.075 98.4506 244.435C94.6106 247.755 89.2106 249.415 82.2506 249.415C77.7306 249.415 73.8306 248.675 70.5506 247.195C67.2706 245.675 64.7506 243.495 62.9906 240.655C61.2306 237.775 60.3506 234.335 60.3506 230.335ZM68.3306 230.335C68.3306 232.935 69.4106 234.855 71.5706 236.095C73.7306 237.295 77.2906 237.895 82.2506 237.895C87.2106 237.895 90.7906 237.275 92.9906 236.035C95.1506 234.795 96.2306 232.895 96.2306 230.335C96.2306 227.695 95.1506 225.775 92.9906 224.575C90.8306 223.375 87.2506 222.775 82.2506 222.775C77.2906 222.775 73.7306 223.375 71.5706 224.575C69.4106 225.775 68.3306 227.695 68.3306 230.335Z" fill="white"/>
<rect x="83.2077" y="201" width="20" height="1.00214" transform="rotate(-90 83.2077 201)" fill="white"/>
</svg>
